<?xml version="1.0" standalone="no"?>
<!DOCTYPE svg PUBLIC "-//W3C//DTD SVG 20010904//EN"
 "http://www.w3.org/TR/2001/REC-SVG-20010904/DTD/svg10.dtd">
<svg version="1.0" xmlns="http://www.w3.org/2000/svg"
 width="469.000000pt" height="469.000000pt" viewBox="0 0 469.000000 469.000000"
 preserveAspectRatio="xMidYMid meet">
<metadata>
Created by potrace 1.14, written by Peter Selinger 2001-2017
</metadata>
<g transform="translate(0.000000,469.000000) scale(0.100000,-0.100000)"
fill="#000000" stroke="none">
<path d="M2257 4160 c-62 -16 -128 -55 -212 -125 -44 -36 -98 -81 -120 -99
-22 -18 -105 -87 -185 -153 -470 -387 -630 -519 -674 -556 -27 -23 -77 -64
-111 -92 -140 -113 -401 -328 -410 -339 -5 -6 -26 -23 -45 -37 -19 -15 -46
-36 -60 -48 -69 -58 -219 -182 -363 -300 -37 -30 -70 -63 -73 -74 -13 -41 7
-85 77 -168 39 -46 89 -107 112 -136 74 -91 119 -102 188 -44 18 16 106 88
194 161 88 73 171 142 185 154 14 11 48 39 75 62 55 44 404 333 580 479 61 50
153 126 205 169 52 43 115 96 140 116 301 251 445 369 493 406 62 46 98 55
140 32 21 -11 301 -241 1192 -979 72 -60 177 -147 235 -195 58 -47 125 -103
150 -124 25 -21 90 -75 145 -120 55 -45 111 -92 125 -104 65 -56 125 -96 144
-96 20 0 63 24 76 41 3 3 25 30 50 59 25 30 73 86 107 126 33 40 64 87 68 103
9 43 -10 94 -45 120 -30 22 -342 274 -390 315 -14 11 -42 33 -62 48 -20 15
-42 33 -50 41 -7 7 -48 41 -90 75 l-78 63 0 575 c0 615 0 617 -49 644 -12 6
-119 10 -276 10 l-257 0 -34 -34 -34 -34 0 -313 0 -313 -32 30 c-18 17 -82 71
-143 120 -60 49 -119 96 -130 106 -477 397 -524 429 -649 434 -39 2 -88 -1
-109 -6z"/>
<path d="M2306 3233 c-10 -3 -30 -15 -45 -28 -14 -12 -96 -80 -181 -150 -238
-196 -242 -199 -254 -210 -6 -5 -47 -39 -91 -75 -44 -36 -89 -73 -100 -82 -32
-27 -383 -317 -619 -513 -120 -99 -222 -181 -227 -183 -5 -2 -9 -293 -9 -685
0 -642 1 -684 18 -716 10 -19 34 -43 53 -53 31 -17 68 -18 512 -18 528 0 529
0 567 62 19 32 20 49 20 453 0 380 2 423 18 455 33 67 51 70 377 70 325 0 341
-3 377 -70 17 -32 18 -67 18 -455 0 -399 1 -422 20 -452 39 -64 29 -63 559
-63 315 0 489 4 508 11 33 12 60 39 73 74 6 16 10 284 10 705 l0 679 -216 178
c-119 98 -273 225 -343 282 -69 56 -135 111 -146 120 -11 9 -108 88 -215 176
-107 88 -200 164 -206 170 -6 5 -26 21 -44 35 -18 14 -38 30 -44 35 -41 38
-285 234 -303 243 -22 12 -52 14 -87 5z"/>
</g>
</svg>
